<?xml version="1.0" encoding="utf-8"?>
<!-- Generator: Adobe Illustrator 27.5.0, SVG Export Plug-In . SVG Version: 6.00 Build 0)  -->
<svg version="1.1" xmlns="http://www.w3.org/2000/svg" xmlns:xlink="http://www.w3.org/1999/xlink" x="0px" y="0px"
	 viewBox="0 0 500 500" style="enable-background:new 0 0 500 500;" xml:space="preserve">
<g id="Background">
	<rect style="fill:#E1DED9;" width="500" height="500"/>
	<circle style="fill:#FCFDF5;" cx="256.804" cy="244.452" r="104.253"/>
</g>
<g id="Logo">
	<g id="Logo_1_">
		<g id="Fill">
			<path style="fill:#FCFDF5;" d="M326.961,174.303c-0.875,1.574,0.773,2.461,2.089,2.777c1.71,0.41,3.596,0.158,5.172-0.6
				c0.768-0.37,3.417-1.5,3.548-2.446c0.55-4.051-3.84-6.441-6.99-7.861c-3.28-1.03-6.71-0.85-10.02-0.14
				c-1.284,0.275-2.966,1.763-2.963,3.166c0.002,0.743,0.51,1.411,1.138,1.808c1.071,0.676,2.614,0.953,3.865,0.986
				c4.55,0.12,10.53-2.72,13.91,1.54C333.521,172.263,330.041,173.133,326.961,174.303z"/>
			<path style="fill:#FCFDF5;" d="M326.661,135.833c5.15-3.9-0.87-13.8-6.51-9.7C314.911,130.023,321.211,138.573,326.661,135.833z"
				/>
			<path style="fill:#FCFDF5;" d="M262.101,135.343c-2.72,0.86-4.14,3.93-3.54,6.62c0.66,3.97,5.2,6.38,8.91,4.76
				C273.031,143.433,268.241,133.043,262.101,135.343z"/>
			<path style="fill:#FCFDF5;" d="M203.351,300.599c-0.22-1.767-0.332-3.504-0.298-5.149c0-0.166-0.005-0.331-0.003-0.497
				c0.01-0.159,0.03-0.318,0.041-0.477c0.013-0.22,0.024-0.442,0.043-0.658c0.375-4.233,0.931-9.146,1.474-13.59
				c-4.34,9.622-4.447,25.015-4.447,25.015s-5.417-23.769,4.499-52.2c-10.709,6.073-21.67,19.02-31.028,35.848
				c-0.003,0.006-0.006,0.011-0.009,0.017c-2.587,4.316-4.844,8.834-6.803,13.435c-0.33,1.11-0.66,2.23-0.99,3.34
				c-4.89,13.37-5.52,28.66,0.35,41.83c2.95,6.52,9.21,11.07,16.24,12.19l0.07-0.16c-5.74-1.57-9.11-7.14-10.33-12.61
				c-0.91-5.09-0.05-10.46,2.24-15.08c-0.39,5.7-0.8,11.71,1.53,17.09c2.39,5.67,8.62,9.26,14.71,8.92c0.1-4.62-0.55-9.3,0.36-13.87
				c0.72,4.59,0.6,9.92,4.06,13.49c3.26,0.44,6.92,0.43,9.75-1.49c2.72-2.16,3.96-5.73,4.09-9.12c0.55-9.34-0.33-18.71-1.95-27.92
				C205.768,312.847,204.041,306.787,203.351,300.599z"/>
			<path style="fill:#FCFDF5;" d="M253.901,351.743c-0.312-0.232-0.605-0.491-0.918-0.723c-3.327-2.456-7.387-3.648-11.451-4.125
				c-2.165-0.254-4.341-0.135-6.531-0.196c-2.25-0.063-4.507-0.146-6.751,0.075c-1.682,0.166-3.817,0.345-5.106,1.527
				c-1.195,1.095-1.814,2.525-2.32,4.039c-0.52,1.554-0.922,3.492-0.241,5.062c0.674,1.555,2.053,2.349,3.567,2.92
				c1.813,0.59,4.088,0.967,6.526,1.198c0.017-1.015,0.121-2.902,0.131-3.139c0.048-1.13-0.022-2.272,0.295-3.366
				c0.162-0.559,0.364-0.79,0.811-1.142c0.024-0.019,0.051-0.039,0.082-0.043c0.072-0.009,0.122,0.071,0.141,0.141
				c0.029,0.104,0.034,0.213,0.04,0.32c0.059,1.179,0.11,2.361,0.255,3.533c0.162,1.314,0.415,2.619,0.805,3.885
				c3.084,0.17,6.251,0.155,8.941,0.072c0.588-0.018,1.184-0.045,1.78-0.078c0.024-0.911,0.067-3.32,0.074-3.586
				c0.034-1.23-0.088-2.625,0.388-3.785c0.079-0.193,0.349-0.794,0.576-0.424c0.807,1.318,1.144,2.803,1.233,4.331
				c0.064,1.095,0.032,2.202,0.145,3.295c4.288-0.372,8.168-1.088,9.182-1.982c1.003-0.883,1.273-1.463,1.251-2.126
				C256.527,355.228,255.782,353.138,253.901,351.743z"/>
			<path style="fill:#FCFDF5;" d="M146.126,277.755c-8.724-14.083-11.525-31.805-8.415-48.052c-10.08,15.47-10.72,35.98-2.84,52.51
				c2.191,4.078,4.5,8.168,7.276,11.891l0.009,0.032c6.501,9.986,15.214,15.831,15.214,15.831s3.198-9.273,7.059-15.831
				C164.429,294.135,151.735,286.698,146.126,277.755z"/>
			<path style="fill:#FCFDF5;" d="M320.978,217.9c-2.781,0.99-5.737,1.682-8.845,2.131c4.363,4.712,5.122,7.732,5.122,7.732
				s-2.35-3.125-9.104-7.301c-8.278,0.651-17.49-0.141-27.271-1.489c2.125,3.124,4.448,6.123,6.984,8.919
				c4.469,4.232,9.038,7.576,14.301,9.396c6.426,1.719,20.406,1.355,24.552-1.842c4.168-3.214,4.118-5.45,3.716-7.483
				C330.039,225.964,326.582,220.466,320.978,217.9z"/>
			<path style="fill:#FCFDF5;" d="M322.091,245.223c-6.27,3.13-13.56,2.86-20.34,2.08c-11.11-1.57-20.45-8.43-28.9-15.36
				c-2.546-2.457-5.343-4.647-8.206-6.729c-3.026-2.089-8.273-5.268-15.4-7.979c0.663,0.768,1.353,1.512,2.059,2.243
				c4.471,4.535,5.87,9.604,6.292,11.873c-3.42-5.518-7.975-10.454-13.285-14.219c-1.674-1.254-3.475-2.412-5.432-3.158
				c-0.924,1.094-0.86,2.672,0.389,3.788c5.045,4.39,9.998,9.104,13.483,14.87c-1.586-1.847-3.266-3.606-5.016-5.292
				c-0.859-0.752-5.742-4.987-9.062-7.08c-3.651-2.301-5.753-1.332-9.379,5.268l0.021-0.058
				c-3.695,6.935-8.001,13.542-11.344,20.671c-0.438,0.958-0.877,1.918-1.316,2.879c-1.23,3.043-2.391,5.737-3.463,8.219
				c-5.057,11.685-7.72,24.863-6.105,40.989c0.001,0.01,0.002,0.02,0.004,0.029c2.272,15.611,7.985,22.634,9.566,29.656
				c0.46,2.041,0.945,4.139,1.188,6.218c0.234,2.005,0.159,7.097,0.951,8.993c0.125,0.298,0.28,0.601,0.545,0.786
				c1.021,0.713,1.234-0.933,1.261-1.565c0.11-2.616-0.324-8.158-0.888-10.7c-0.686-3.093-1.636-6.119-2.562-9.147
				c-0.504-1.648-1.03-3.289-1.577-4.924c-1.095-3.268-2.277-6.508-3.544-9.713c0.454,0.617,0.895,1.243,1.323,1.878
				c2.821,4.195,5.088,8.777,6.68,13.576c0.802,2.419,1.431,4.896,1.854,7.41c0.21,1.248,0.37,2.505,0.473,3.766
				c0.103,1.258,0.011,5.554,0.311,6.789c0.181,0.744,0.565,1.476,1.214,1.883c0.71,0.445,1.613,0.431,2.44,0.3
				c4.035-0.639,8.176-0.615,12.25-0.53c0.398,0.008,3.815,0.331,3.915,0.118c2.868-6.081,5.25-15.337,7.204-21.77
				c3.679-12.119,5.932-24.668,6.716-37.31c0.157-4.124-0.131-9.869-1.765-18.951c-1.993-11.078-5.133-17.129-11.891-29.389
				c-0.879-1.493-1.761-2.985-2.672-4.459c2.594,0.198,4.185,2.845,5.359,5.167c6.739,13.322,14.281,26.238,22.573,38.653
				c-6.694-6.614-12.128-14.407-12.128-14.407c-0.321,0.955,0,2.134,1.613,11.852l-0.029-0.092c0.273,1.502,0.526,3.007,0.734,4.519
				c0.906,6.584,1.193,13.253,0.855,19.891c-0.326,6.395-0.964,12.915-2.357,19.165c-0.867,4.16-2.4,8.125-3.847,12.122
				c-1.489,4.113-3.03,11.206-4.624,15.279c0.197-0.503,4.675,0.534,5.258,0.646c2.181,0.418,4.371,0.538,6.579,0.268
				c4.3-0.526,8.389-2.391,11.949-4.696c12.104-7.837,22.168-19.883,26.532-33.718c2.61-8.35,4.62-17.15,3.56-25.94
				c4.96,16.82-1.78,34.77-12.48,47.86c-0.939,1.101-1.928,2.151-2.954,3.159c3.57-2.696,6.797-5.726,9.708-8.944
				c0.327-0.52,0.654-1.04,0.982-1.561c0.723-1.166,1.477-2.391,2.275-3.672c2.106-3.486,4.063-7.06,5.53-10.872
				c0.506-1.21,1.002-2.431,1.485-3.661c2.406-5.816,2.384-11.765,0.578-17.423c-0.982-2.599-2.308-5.335-3.893-8.109
				c-0.236-0.368-0.436-0.718-0.615-1.058c-2.884-4.865-6.513-9.798-10.405-14.238c-3.103-3.192-5.637-6.915-8.601-10.223
				c-3.573-3.535-7.194-7.285-10.635-11.327c-0.815-0.712-1.55-1.498-2.063-2.481c3.05,1.61,5.66,3.92,8.71,5.53
				c10.74,6.3,23.69,8.99,36.01,7.14c7.143-0.877,13.065-5.664,16.723-11.708c0.521-0.901,2.416-4.417,1.317-6.186
				c-0.385-0.471-0.85-0.871-1.42-1.166C330.671,236.633,327.581,242.423,322.091,245.223z"/>
			<path style="fill:#FCFDF5;" d="M316.741,253.173c0.11,6.25,0.13,12.51,0.04,18.76c-0.139,8.566-2.349,16.698-4.125,25.001
				c-1.914,8.951-6.546,17.55-11.414,25.217c-2.694,4.243-5.626,8.449-7.3,13.229c-0.399,1.139-0.691,2.381-0.895,3.657
				c-0.123,0.337-0.236,0.697-0.327,1.096c-1.825,7.958,0.254,20.639,11.458,20.639s21.673,0,21.673,0
				c-4.76-1.51-9.15-4.14-12.83-7.49c7.43,2.12,13.89,8.77,22.08,6.78c1.21-4.86-2.66-8.94-6.35-11.44
				c-1.425-1.021-2.955-1.822-4.548-2.449c-0.087-0.037-0.167-0.076-0.259-0.112c-6.783-2.687-12.683-2.373-17.924-0.5
				c4.021-5.87,10.923-21.262,14.992-35.424c0.897-3.379,1.69-6.783,2.362-10.21c0.089-0.504,0.178-0.982,0.267-1.427
				c1.017-5.481,1.72-11.018,1.999-16.61c0.56-10.17-1.65-20.18-3.07-30.18C320.651,252.313,318.711,252.793,316.741,253.173z"/>
			<path style="fill:#DC8434;" d="M206.581,100.143c-2.48-2.66-6.2-3.34-9.6-4.03c3.27-6.43,11.63-3.98,17.4-4.18
				c-3.2-3.27-8.2-3.48-12.49-3.3c-6.78,0.24-12.36,4.82-16.85,9.49c-6.72,7.29-12.93,15.06-20.05,21.98
				c-8.1,8.31-16.96,16.02-23.89,25.37c-2.876,3.524-1.875,7.888-0.133,11.705c0.073-0.412,0.153-0.821,0.245-1.226
				c0.644-2.84,1.733-5.498,3.095-7.951c-0.268,9.872,7.9,15.976,7.9,15.976s-9.286-16.601-1.445-24.629
				c3.87-4.082,7.885-7.013,10.16-8.526c1.161-0.772,1.872-1.179,1.872-1.179s-10.558,12.691,2.868,22.222
				c1.128,0.801,2.405,1.581,3.892,2.328c8.999,3.574,19.184,4.606,28.337,1.011c4.02-1.15,7.01-5,11.42-4.82
				c2.53,1.81,4.04,4.83,6.44,6.59c0.18-13.84-0.13-27.88-2.62-41.56C211.921,110.013,210.431,104.313,206.581,100.143z"/>
			<path style="fill:#FCFDF5;" d="M318.661,153.913c-5.19-1.33-9.82-4.78-12.2-9.62c-1.315-2.558-2.36-5.247-3.215-7.991
				c-2.706-8.684-3.855-17.856-5.702-26.747c-0.409-1.97-1.138-4.088-0.999-6.105c0.103-1.501,0.616-3.02,1.676-4.087
				c0.047,0.874-0.069,1.748-0.1,2.623c-0.114,3.172,0.7,6.341,1.348,9.423c0.661,3.146,1.401,6.275,2.054,9.423
				c1.728,8.332,3.52,16.888,8.149,24.172c6.23,7.77,17.05,8.02,25.68,11.5c0.96-6.47,1.88-13.04,0.96-19.58
				c-1.02-6.94-2.95-14.27-8.19-19.27c-3.41-3.64-8.3-6.63-13.48-5.51c-1.961,0.643-3.414,2.127-4.697,3.679
				c-0.639,0.772-1.246,1.57-1.904,2.326c-0.361,0.415-1.006,1.392-1.611,1.428c-1.118,0.067-0.349-1.969-0.148-2.441
				c0.476-1.117,1.202-2.11,2.001-3.016c0.519-0.589,1.068-1.162,1.641-1.699c0.512-0.479,1.143-0.863,1.522-1.468
				c0.07-0.112,0.133-0.252,0.078-0.373c-0.048-0.106-0.167-0.156-0.276-0.196c-2.024-0.748-4.091-1.278-6.215-1.624
				c-0.706-0.115-1.439-0.34-1.915-0.875c-1.437-1.616,0.152-4.099,1.45-5.232c0.585-0.511,1.246-0.926,1.937-1.278
				c0.172-0.087,1.897-0.743,1.897-0.801c0.002,0.312,0.004,0.624,0.006,0.936c0.001,0.109,0.006,0.229,0.081,0.307
				c0.132,0.138,0.36,0.049,0.53-0.037c2.031-1.032,4.487-0.638,6.657,0.053c3.366,1.072,6.914,3.354,6.873,7.31
				c3.45,2.51,6.2,5.75,9.1,8.86c-2.19-8.33-5.92-16.41-11.97-22.64l-0.19,0.02c-6.44-6.51-14.8-11.19-23.87-12.72
				c-23.82-4.13-48.93,1.89-68.89,15.36c-0.89,0.73-1.71,1.54-2.46,2.43l-0.16,0.01c-5.24,8.89-3.7,19.57-3.87,29.4
				c-0.071,3.222,0.003,6.435,0.174,9.642c0.249,21.458-3.346,33.399-0.594,44.598c0.97,3.39,2.21,6.76,4.42,9.57
				c6.23,11.12,18.05,17.79,29.73,21.91c3.484,1.293,6.793,2.929,9.978,4.787c13.123,8.515,20.023,18.474,30.645,22.048
				c2.216,0.746,4.293,1.261,6.246,1.631c10.715,2.148,15.991,0.922,19.459,0.018s5.159-3.773,5.159-3.773s-5.27,2.594-12.149,2.566
				c-2.024-0.083-4.121-0.356-6.243-0.798c-0.054-0.011-0.108-0.022-0.163-0.034c-0.713-0.188-1.348-0.333-1.922-0.447
				c-3.41-0.882-6.842-2.191-10.102-3.852c-2.037-0.996-3.948-2.157-5.713-3.406c-0.019-0.013-0.039-0.026-0.058-0.039
				c-8.414-5.973-13.539-13.797-13.539-13.797c-2.779-3.428-5.392-7-7.919-10.615c-2.28-3.69-5.07-7.18-6.29-11.41
				c3.13,1.3,5.14,4.15,7.79,6.13c9.63,7.54,22.38,11.93,34.6,9.43c5.86-1,11.68-3.82,15.14-8.79c2.11-3.1,3.08-6.78,3.13-10.5
				c0-0.01-2.017-0.872-3.444-1.494c-2.292,5.472-7.28,5.548-7.28,5.548c2.843-1.143,4.533-3.486,5.525-6.387
				c-1.572-0.861-3.098-1.806-4.555-2.849c-0.652-0.467-1.355-0.978-2.073-1.522c-3.055,3.713-7.147,3.157-7.147,3.157
				c2.52-0.601,4.352-2.171,5.711-4.285c-3.251-2.651-6.422-6.022-6.667-9.929c-0.506-4.226,1.694-8.387,5.133-10.777
				c3.685-2.561,8.761-3.451,13.147-3.888c4.697-0.468,9.542,0.001,13.84,2.055c3.32,1.46,6.2,4.07,7.44,7.54
				c0.912,5.381-1.559,11.326-5.062,15.581c1.623,1.529,3.548,2.522,5.879,2.634c0,0-3.522,1.163-7.031-1.341
				c-0.116,0.121-0.229,0.247-0.346,0.364c-1.179,1.181-2.491,2.231-3.906,3.116c-0.35,0.219-0.717,0.408-1.084,0.596
				c1.102,1.053,2.418,1.833,4.018,2.214c0,0-2.693,0.357-5.341-1.484c-0.468,0.277-1.533,0.899-1.532,0.885
				c-0.323,5.56-0.642,11.131-1.604,16.623c4.92,1.295,10.307,1.465,14.215-0.394c1.999-0.951,3.48-1.796,4.799-2.893
				c0.367-0.34,0.699-0.713,1.046-1.072c-0.635-0.378-1.066-1.064-1.066-1.857c0-1.197,0.97-2.167,2.167-2.167
				c0.65,0,1.226,0.292,1.623,0.745c0.165-0.239,0.329-0.477,0.487-0.721c0.047-0.072,0.093-0.138,0.14-0.211
				c1.93-3.028,3.287-6.432,4.055-9.971c-0.035,0.002-0.069,0.011-0.105,0.011c-1.197,0-2.167-0.97-2.167-2.167
				s0.97-2.167,2.167-2.167c0.255,0,0.497,0.052,0.724,0.133c0.565-6.866-1.066-13.891-5.156-19.448
				C340.951,160.213,329.361,157.003,318.661,153.913z M311.021,125.903c1.34-2.4,3.34-4.85,6.21-5.3
				c4.78-0.73,8.86,2.71,12.08,5.79c5.28,6.43,4.81,17.83-2.31,22.77c-4.38,3.07-10.17,0.44-13.13-3.35
				C309.591,140.323,307.611,132.313,311.021,125.903z M243.493,116.79c0.519-1.354,1.644-2.53,2.73-3.451
				c5.057-4.284,11.864-6.447,18.277-4.036c1.524,0.573,2.919,1.359,3.977,2.627c1.181,1.416,2.447,3.883,0.023,4.81
				c-0.727,0.278-1.529,0.273-2.307,0.23c-3.266-0.18-6.267-0.605-9.461-0.271c-0.465,0.049-0.933,0.113-1.407,0.197
				c-3.646,0.645-7.19,1.786-10.862,2.297C243.043,119.392,243.154,117.675,243.493,116.79z M237.663,134.051
				c-1.526,2.069-2.829,4.306-3.826,6.677c-0.499,1.188-0.922,2.409-1.258,3.653c-0.087,0.321-0.191,1.632-0.425,1.812
				c-0.564,0.434-0.476-0.509-0.456-0.86c0.493-8.79,5.76-16.562,13.154-21.096c3.325-2.039,6.9-4.02,10.907-4.065
				c-0.99,0.011-2.613,1.184-3.489,1.64c-1.146,0.597-2.267,1.241-3.359,1.931C244.597,126.472,240.699,129.934,237.663,134.051z
				 M263.447,189.019c-3.069,0.193-5.918,1.889-7.624,4.443c-0.778,1.165-1.304,2.494-1.552,3.872
				c-0.127,0.707-0.181,1.427-0.159,2.144c0.016,0.514,0.272,1.43-0.171,1.846c-0.089,0.083-0.171,0.119-0.249,0.121
				c-0.212,0.004-0.398-0.239-0.615-0.471c-2.468-2.642-1.663-7.894,0.337-10.531c1.482-1.953,3.807-3.25,6.262-3.372
				c1.422-0.07,2.818,0.12,4.149,0.635c0.312,0.121,1.585,0.527,1.474,0.899C265.165,189.057,263.793,188.997,263.447,189.019z
				 M267.621,161.713c-7.47,4.83-18.57,1.61-22.1-6.61c-3.39-8.41,0.31-19.74,8.76-23.61c8.55-4.27,17.96,3.01,20.22,11.28
				C276.841,149.753,273.231,157.443,267.621,161.713z M275.919,126.422c-0.174-0.057-0.302-0.289-0.421-0.416
				c-0.019-0.02-0.036-0.037-0.05-0.05c-1.071-0.993-2.281-1.791-3.428-2.688c-1.247-0.977-2.445-2.022-3.758-2.91
				c-0.324-0.219-0.653-0.429-0.987-0.631c-0.284-0.171-0.724-0.329-0.939-0.568c1.293-0.559,3.035,0.215,4.142,0.869
				c1.105,0.651,2.127,1.421,3.13,2.217c1.231,0.975,2.041,2.397,2.572,3.855C276.271,126.345,276.182,126.508,275.919,126.422z
				 M280.819,190.395c0-1.197,0.97-2.167,2.167-2.167s2.167,0.97,2.167,2.167s-0.97,2.167-2.167,2.167
				S280.819,191.591,280.819,190.395z M285.153,208.038c-1.197,0-2.167-0.97-2.167-2.167s0.97-2.167,2.167-2.167
				c1.197,0,2.167,0.97,2.167,2.167S286.35,208.038,285.153,208.038z M293.768,198.584c-1.197,0-2.167-0.97-2.167-2.167
				c0-1.197,0.97-2.167,2.167-2.167s2.167,0.97,2.167,2.167C295.935,197.614,294.965,198.584,293.768,198.584z M303.41,205.871
				c0,1.197-0.97,2.167-2.167,2.167s-2.167-0.97-2.167-2.167s0.97-2.167,2.167-2.167S303.41,204.674,303.41,205.871z
				 M335.327,205.871c-1.197,0-2.167-0.97-2.167-2.167c0-1.197,0.97-2.167,2.167-2.167s2.167,0.97,2.167,2.167
				C337.493,204.901,336.523,205.871,335.327,205.871z M344.634,196.417c-1.197,0-2.167-0.97-2.167-2.167
				c0-1.197,0.97-2.167,2.167-2.167s2.167,0.97,2.167,2.167C346.801,195.447,345.831,196.417,344.634,196.417z"/>
			<path style="fill:#FCFDF5;" d="M358.834,110.47c-5.992-6.935-13.645-12.261-20.493-18.307c-6.38-5.23-11.65-11.87-18.86-16.03
				c-6.03-3.54-13.84-2.9-19.78,0.49c7.05-1.24,14.57,0.51,20.09,5.16c3.39,2.98,6.62,6.26,9.11,10.05
				c4.918,9.395,9.297,19.052,13.771,28.668l0,0.003c0.028,0.06,0.055,0.116,0.083,0.176c0.365,0.785,0.73,1.57,1.096,2.354
				c0.184,0.398,0.383,0.787,0.579,1.179c7.211,15.229,12.074,26.091,13.262,35.598c0,0,4.265-9.55,7.407-21.381
				c3.141-11.831,1.461-20.347-6.254-27.948C358.841,110.476,358.838,110.473,358.834,110.47z"/>
			<path style="fill:#DC8434;" d="M217.997,185.006l22.007,13.578c0,0,4.902-19.702,24.171-28.313
				c19.27-8.612,24.285-28.741,18.811-51.304c-5.474-22.564-30.16-23.521-42.599-18.928c-12.439,4.593-17.223,0.95-15.692-2.204
				s-9.76-2.389-7.846,4.692c1.914,7.081,0.847,28.7,1.333,32.487c0.486,3.788-0.729,29.553-0.851,34.292
				S217.997,185.006,217.997,185.006z"/>
			<circle style="fill:#FCFDF5;" cx="264.175" cy="141.853" r="7.723"/>
			<path style="fill:#DC8434;" d="M268.313,168.11c20.671-11.084,20.441-29.39,20.441-39.542c0,0-0.603,17.738-9.49,26.848
				C268.996,165.941,268.313,168.11,268.313,168.11z"/>
			<path style="fill:#DC8434;" d="M298.22,99.362c0.865-3.357,12.703-2.977,16.013-2.003l-2.044,1.46c0,0,8.665-1.266,15.674,6.912
				s16.064,36.985,15.09,44.779s-7.399,7.502-7.399,7.502s-15.211-4.685-18.727-6.091c-3.515-1.406-7.985-4.319-9.366-7.96
				c-1.381-3.641-5.999-17.198-6.456-20.433c-0.457-3.235-2.702-14.387-3.349-16.937C297.01,104.041,298.22,99.362,298.22,99.362z"
				/>
			<circle style="fill:#FCFDF5;" cx="323.613" cy="131.058" r="6.304"/>
			<path style="fill:#F56028;" d="M277.058,217.165c4.139,8.531,16.808,20.862,28.21,22.72c11.402,1.858,21.96-2.196,23.733-4.054
				s3.469-6.503,1.608-9.629c-1.861-3.125-9.125-10.22-9.125-10.22l-21.453,1.917L277.058,217.165z"/>
			<path style="fill:#DC8434;" d="M297.466,78.608c15.374,3.539,33.406,13.995,36.748,30.576s21.375,59.594,21.375,59.594
				s11.041-18.845,13.448-35.539c2.406-16.694-5.238-22.215-11.466-27.736c-6.228-5.521-24.823-20.335-29.731-25.243
				c-4.908-4.908-12.713-8.69-19.552-7.885c-6.839,0.805-13.517,4.184-13.517,4.184L297.466,78.608z"/>
			<path style="fill:#DBD4D3;" d="M333.544,230.481c-1.064-0.355-1.437-1.463-2.935,1.153c-1.498,2.615-1.853,8.6-10.32,8.334
				c-0.447-0.014-0.906-0.028-1.367-0.042c-0.197,1.65-1.819,2.761-5.613,2.934c-17.591,0.803-35.64-11.77-43.787-18.477
				c-3.903-1.399-7.731-2.901-11.097-4.692c-10.36-5.511-13.55-4.351-13.55-4.351s5.866,3.52,8.112,7.354
				c2.246,3.834,4.609,8.657,4.609,8.657c4.188,13.095,17.349,26.902,39.417,35.776c0,0,15.227-14.404,19.226-15.415
				c4-1.011,13.127-6.849,16.921-11.352S334.608,230.835,333.544,230.481z"/>
			<path style="fill:#DBD4D3;" d="M257.471,272.347c7.713,22.517,5.949,46.09-2.069,65.495c0,0,18.485-2.504,31.918-16.036
				c13.433-13.532,14.819-32.053,14.819-32.053s0.735,8.619-0.466,12.003s-4.312,12.716-4.312,12.716l-3.125,5.069
				c0,0,7.499-5.972,11.695-13.297c4.196-7.326-1.786,6.869-1.786,6.869l8.416-15.757c0,0-2.996,17.199-6.601,25.933
				s-11.369,22.737-5.546,28.699c5.823,5.962,24.358,5.754,28.14,5.544c3.782-0.21,6.771-3.295,6.771-3.295s2.125,5.466,0.584,7.217
				c-1.541,1.751-19.052,3.082-25.356,2.522c-6.304-0.56-21.294-3.203-21.294-3.203s-12.072-6.573-23.361-10.308
				c-11.289-3.735-21.167-6.558-21.167-6.558s7.72-15.938,10.542-31.212c2.822-15.274,2.905-26.563,2.49-30.714
				C257.35,277.831,257.471,272.347,257.471,272.347z"/>
			<path style="fill:#DBD4D3;" d="M218.752,350.193c4.313,7.887,13.193,7.973,20.333,8.01s12.323-0.739,19.84-5.915
				s2.958,7.648-0.739,9.554s-20.579,4.864-25.509,4.001s-17.622-2.131-18.731-5.07S218.752,350.193,218.752,350.193z"/>
			<path style="fill:#DBD4D3;" d="M218.791,244.452c-11.834,24.861-10.564,49.269-4.984,56.953
				c5.58,7.684,13.25,30.123,11.669,42.977l-9.067,2.249c0,0-0.949-17.863-4.007-24.4c-3.058-6.537-7.486-15-7.591-26.689
				c-0.105-11.689,2.53-23.814,2.53-23.814l5.693-23.196L218.791,244.452z"/>
			<path style="fill:#DBD4D3;" d="M165.207,307.482c-5.797,18.666-0.036,35.82,8.605,39.149c0,0-0.707-9.871,0.457-12.794
				c0,0,1.99,12.914,7.891,16.356c5.901,3.442,8.879,2.725,8.879,2.725l0.417-5.349c0,0,2.34,5.46,6.641,5.901
				c4.301,0.441,12.463-2.978,12.463-2.978s-2.702,8.823-3.033,8.934c-0.331,0.11-8.934,3.143-11.029,3.199
				s-8.327,0.055-13.511-0.441c-5.184-0.496-17.426-5.68-20.515-13.842c-3.088-8.162-5.15-22.745-4.647-26.19
				C158.328,318.706,165.207,307.482,165.207,307.482z"/>
			<path style="fill:#DBD4D3;" d="M129.547,260.701c1.948,22.477,18.226,33.434,23.391,35.625c5.165,2.191,9.861-6.261,9.861-6.261
				l5.009,4.696l-10.8,20.191c0,0-7.826-3.757-13.617-12.052s-14.4-23.635-16.278-28.8
				C125.234,268.935,129.547,260.701,129.547,260.701z"/>
			<path style="fill:#DC8434;" d="M180.516,273.503c-6.47,9.803-9.215,16.666-9.215,16.666s11.764-10.784,17.45-11.96
				c0,0,0.827,31.959,16.687,33.724l-0.63-19.215l1.808-24.705l8.632-25.685l8.003-6.139c0,0-10.217,24.941-7.457,42.989
				c0,0,2.368-20.185,10.995-32.929s11.372-24.964,8.235-31.01s-16.862,16.894-21.371,21.011
				c-4.51,4.117-24.116,25.685-24.116,25.685L180.516,273.503z"/>
			<path style="fill:#DC8434;" d="M217.578,254.651c2.415-9.057-4.644-5.439-4.644-5.439l8.398-17.175l7.889-2.334l-0.91,8.602
				l-7.889,14.738L217.578,254.651z"/>
			<path style="fill:#DBD4D3;" d="M313.577,274.053c0,0,12.816,7.327,15.703,13.774c0,0-1.967-17.543-2.868-29.261
				c-0.901-11.718-3.416-8.547-4.945-8.459c-1.53,0.088-6.997,0.569-7.737,1.982C312.992,253.502,313.577,274.053,313.577,274.053z"
				/>
			<path style="fill:#DBD4D3;" d="M304.238,180.975c-0.829,6.081,4.697,8.579,8.518,11.932c3.822,3.354,3.042,11.386,1.404,14.038
				c-1.638,2.652-10.469,9.334-19.389,8.293s0.594,3.639,5.663,3.171c5.069-0.468,18.484-5.693,20.277-7.721
				c1.794-2.028,5.681,4.133,11.42,3.977s10.336-3.977,10.336-3.977s-10.227-0.234-11.858-3.198c-1.631-2.964-2.737-9.515,0-12.4
				c2.737-2.886,8.898-7.253,9.444-14.116S304.238,180.975,304.238,180.975z"/>
		</g>
		<g id="Outline">
			<g>
				<path style="fill:#3E2E2E;" d="M360.551,105.213c-8.91-6.66-18.14-13.05-25.88-21.11c-5.39-5.31-10.54-11.4-17.83-14.12
					c-8.46-3.12-18.52-0.36-24.1,6.75c-16.63-2.42-33.92-2.18-49.98,3.18c-7.58,2.44-14.49,6.49-21.2,10.69
					c-6.91-8.44-19.49-8.85-28.93-4.93c-9.68,4.14-15.6,13.26-22.01,21.12c-12.3,15.94-26.4,30.64-42.9,42.28
					c-1.17,1.01-3.39,1.93-2.68,3.87c1.55,7.16,5.16,13.65,8.79,19.94c3.83,6.62,7.62,13.46,13.45,18.57
					c9.28,8.99,23.11,10.65,32.67,19.25c2.96,2.79,5.81,6.19,6.45,10.35c0.28,4-2.35,7.38-3.84,10.9
					c9.41-3.21,18.13-9.1,23.48-17.62c4.56-6.48,6.76-14.17,9.76-21.41c0.96,4.15,3.78,7.32,5.97,10.8
					c-0.65,8.51-2.53,17-6.43,24.65c-3.79,8.09-10.56,14.14-17.01,20.09c-6,5.33-11.6,11.13-16.41,17.57
					c-5.02,6.51-8.91,13.79-13.11,20.83c0,0-34.201-6.639-27.216-67.816c-9.24,7.333-15.192,18.236-17.715,29.676
					c-3.51,17.38,0.78,35.92,10.64,50.53c3.311,5.14,7.044,9.988,10.747,14.848c2.034,2.67,4.747,5.206,6.434,8.095
					c1.457,2.496,0.835,4.997,0.868,7.721c0.036,3.018,0.34,6.035,0.95,8.992c1.195,5.8,3.594,11.373,7.332,15.994
					c9.343,9.672,17.147,11.499,41.881,11.836c31.994,0.063,63.996,0.192,95.989-0.167c14.424-0.166,28.871-0.059,43.301-0.351
					c-0.139-3.488-0.975-13.227-5.927-19.222c-6.115-7.402-20.115-6.83-20.115-6.83s4.753-7.799,8.721-17.483
					c0.441-1.268,0.887-2.535,1.35-3.793c5.15-14.71,8.23-30.37,6.53-45.99c-1.01-8.19-2-16.71-5.92-24.11
					c4.18-3.13,7.72-7.23,9.9-11.98c1.51-2.81,0.08-6.52-2.85-7.67c-0.389-0.163-0.782-0.297-1.176-0.417
					c-0.418-2.53-2.625-5.392-4.787-7.668c0.11-1.775,1.651-3.6,2.721-4.66c1.772,0.04,3.542-0.065,5.291-0.425
					c7.27-1.385,13.733-6.327,17.389-12.709c4.256-7.43,4.845-16.261,4.431-24.637c-0.042-0.86-0.093-1.735,0.115-2.571
					c0.232-0.932,0.771-1.753,1.3-2.554c5.299-8.016,8.566-16.957,11.479-26.113c2.949-9.27,5.235-18.758,6.685-28.38
					c0.058-0.385,0.115-0.771,0.17-1.156C372.361,112.883,366.171,109.373,360.551,105.213z M215.751,156.973
					c-2.4-1.76-3.91-4.78-6.44-6.59c-4.41-0.18-7.4,3.67-11.42,4.82c-9.153,3.595-19.337,2.564-28.337-1.011
					c-1.487-0.747-2.765-1.527-3.892-2.328c-13.426-9.531-2.868-22.222-2.868-22.222s-0.711,0.407-1.872,1.179
					c-2.275,1.513-6.289,4.445-10.16,8.526c-7.84,8.028,1.445,24.629,1.445,24.629s-8.168-6.105-7.9-15.976
					c-1.362,2.453-2.451,5.111-3.095,7.951c-0.092,0.405-0.172,0.814-0.245,1.226c-1.742-3.817-2.743-8.181,0.133-11.705
					c6.93-9.35,15.79-17.06,23.89-25.37c7.12-6.92,13.33-14.69,20.05-21.98c4.49-4.67,10.07-9.25,16.85-9.49
					c4.29-0.18,9.29,0.03,12.49,3.3c-5.77,0.2-14.13-2.25-17.4,4.18c3.4,0.69,7.12,1.37,9.6,4.03c3.85,4.17,5.34,9.87,6.55,15.27
					C215.621,129.093,215.931,143.133,215.751,156.973z M157.37,309.967c0,0-8.713-5.846-15.214-15.831l-0.009-0.032
					c-2.776-3.723-5.086-7.813-7.276-11.891c-7.88-16.53-7.24-37.04,2.84-52.51c-3.11,16.247-0.31,33.969,8.415,48.052
					c5.609,8.943,18.303,16.381,18.303,16.381C160.568,300.694,157.37,309.967,157.37,309.967z M208.901,346.873
					c-0.13,3.39-1.37,6.96-4.09,9.12c-2.83,1.92-6.49,1.93-9.75,1.49c-3.46-3.57-3.34-8.9-4.06-13.49
					c-0.91,4.57-0.26,9.25-0.36,13.87c-6.09,0.34-12.32-3.25-14.71-8.92c-2.33-5.38-1.92-11.39-1.53-17.09
					c-2.29,4.62-3.15,9.99-2.24,15.08c1.22,5.47,4.59,11.04,10.33,12.61l-0.07,0.16c-7.03-1.12-13.29-5.67-16.24-12.19
					c-5.87-13.17-5.24-28.46-0.35-41.83c0.33-1.11,0.66-2.23,0.99-3.34c1.959-4.601,4.216-9.119,6.803-13.435
					c0.003-0.006,0.006-0.011,0.009-0.017c9.358-16.828,20.318-29.775,31.028-35.848c-9.916,28.431-4.499,52.2-4.499,52.2
					s0.107-15.393,4.447-25.015c-0.543,4.445-1.1,9.357-1.474,13.59c-0.019,0.216-0.03,0.438-0.043,0.658
					c-0.011,0.159-0.032,0.318-0.041,0.477c-0.002,0.166,0.003,0.331,0.003,0.497c-0.034,1.646,0.077,3.382,0.298,5.149
					c0.69,6.188,2.417,12.248,3.6,18.354C208.571,328.163,209.451,337.533,208.901,346.873z M255.552,359.553
					c-1.015,0.894-4.894,1.61-9.182,1.982c-0.113-1.093-0.081-2.2-0.145-3.295c-0.089-1.529-0.427-3.013-1.233-4.331
					c-0.227-0.37-0.497,0.231-0.576,0.424c-0.476,1.161-0.354,2.555-0.388,3.785c-0.007,0.266-0.05,2.674-0.074,3.586
					c-0.596,0.033-1.192,0.06-1.78,0.078c-2.69,0.083-5.857,0.097-8.941-0.072c-0.39-1.266-0.642-2.571-0.805-3.885
					c-0.145-1.172-0.196-2.354-0.255-3.533c-0.005-0.108-0.011-0.216-0.04-0.32c-0.019-0.07-0.069-0.15-0.141-0.141
					c-0.031,0.004-0.057,0.024-0.082,0.043c-0.448,0.352-0.65,0.583-0.811,1.142c-0.316,1.093-0.246,2.235-0.295,3.366
					c-0.01,0.237-0.114,2.124-0.131,3.139c-2.438-0.231-4.714-0.609-6.526-1.198c-1.514-0.571-2.893-1.365-3.567-2.92
					c-0.68-1.57-0.278-3.508,0.241-5.062c0.506-1.514,1.125-2.944,2.32-4.039c1.29-1.182,3.424-1.361,5.106-1.527
					c2.244-0.221,4.501-0.138,6.751-0.075c2.191,0.061,4.366-0.058,6.531,0.196c4.065,0.476,8.125,1.669,11.451,4.125
					c0.314,0.231,0.606,0.491,0.918,0.723c1.882,1.396,2.626,3.485,2.902,5.684C256.826,358.09,256.555,358.67,255.552,359.553z
					 M325.641,281.893c-0.279,5.592-0.982,11.129-1.999,16.61c-0.089,0.445-0.178,0.923-0.267,1.427
					c-0.672,3.426-1.465,6.83-2.362,10.21c-4.07,14.162-10.972,29.553-14.992,35.424c5.241-1.873,11.141-2.188,17.924,0.5
					c0.091,0.036,0.172,0.075,0.259,0.112c1.593,0.627,3.123,1.428,4.548,2.449c3.69,2.5,7.56,6.58,6.35,11.44
					c-8.19,1.99-14.65-4.66-22.08-6.78c3.68,3.35,8.07,5.98,12.83,7.49c0,0-10.469,0-21.673,0s-13.282-12.682-11.458-20.639
					c0.092-0.4,0.204-0.759,0.327-1.096c0.204-1.277,0.496-2.518,0.895-3.657c1.673-4.78,4.606-8.986,7.3-13.229
					c4.868-7.667,9.5-16.267,11.414-25.217c1.776-8.303,3.985-16.435,4.125-25.001c0.09-6.25,0.07-12.51-0.04-18.76
					c1.97-0.38,3.91-0.86,5.83-1.46C323.991,261.713,326.201,271.723,325.641,281.893z M333.781,232.109
					c1.1,1.769-0.795,5.285-1.317,6.186c-3.659,6.044-9.581,10.831-16.723,11.708c-12.32,1.85-25.27-0.84-36.01-7.14
					c-3.05-1.61-5.66-3.92-8.71-5.53c0.514,0.982,1.248,1.768,2.063,2.481c3.441,4.041,7.062,7.792,10.635,11.327
					c2.965,3.308,5.498,7.031,8.601,10.223c3.892,4.44,7.522,9.373,10.405,14.238c0.179,0.34,0.378,0.69,0.615,1.058
					c1.585,2.774,2.911,5.51,3.893,8.109c1.806,5.658,1.828,11.607-0.578,17.423c-0.483,1.23-0.979,2.451-1.485,3.661
					c-1.467,3.812-3.424,7.386-5.53,10.872c-0.798,1.281-1.552,2.506-2.275,3.672c-0.328,0.52-0.654,1.041-0.982,1.561
					c-2.911,3.218-6.138,6.248-9.708,8.944c1.027-1.008,2.015-2.058,2.954-3.159c10.7-13.09,17.44-31.04,12.48-47.86
					c1.06,8.79-0.95,17.59-3.56,25.94c-4.365,13.835-14.428,25.882-26.532,33.718c-3.56,2.305-7.649,4.17-11.949,4.696
					c-2.208,0.27-4.399,0.15-6.579-0.268c-0.583-0.112-5.061-1.149-5.258-0.646c1.594-4.073,3.136-11.167,4.624-15.279
					c1.447-3.997,2.98-7.962,3.847-12.122c1.393-6.25,2.031-12.77,2.357-19.165c0.338-6.638,0.051-13.307-0.855-19.891
					c-0.208-1.512-0.461-3.018-0.734-4.519l0.029,0.092c-1.613-9.717-1.934-10.896-1.613-11.852c0,0,5.434,7.793,12.128,14.407
					c-8.292-12.415-15.834-25.331-22.573-38.653c-1.174-2.321-2.765-4.968-5.359-5.167c0.911,1.474,1.793,2.966,2.672,4.459
					c6.758,12.259,9.897,18.31,11.891,29.389c1.634,9.082,1.923,14.827,1.765,18.951c-0.784,12.641-3.036,25.19-6.716,37.31
					c-1.953,6.433-4.335,15.689-7.204,21.77c-0.1,0.213-3.517-0.11-3.915-0.118c-4.074-0.085-8.215-0.108-12.25,0.53
					c-0.828,0.131-1.73,0.144-2.44-0.3c-0.649-0.406-1.033-1.138-1.214-1.883c-0.3-1.236-0.208-5.532-0.311-6.789
					c-0.104-1.261-0.263-2.518-0.473-3.766c-0.423-2.513-1.052-4.991-1.854-7.41c-1.592-4.8-3.859-9.381-6.68-13.576
					c-0.427-0.636-0.868-1.262-1.323-1.878c1.267,3.206,2.449,6.445,3.544,9.713c0.548,1.634,1.073,3.276,1.577,4.924
					c0.926,3.028,1.876,6.054,2.562,9.147c0.564,2.542,0.998,8.085,0.888,10.7c-0.027,0.632-0.24,2.279-1.261,1.565
					c-0.265-0.185-0.421-0.487-0.545-0.786c-0.792-1.896-0.716-6.988-0.951-8.993c-0.243-2.079-0.729-4.177-1.188-6.218
					c-1.581-7.022-7.294-14.044-9.566-29.656c-0.001-0.01-0.002-0.02-0.004-0.029c-1.615-16.126,1.048-29.304,6.105-40.989
					c1.073-2.481,2.233-5.175,3.463-8.219c0.439-0.961,0.878-1.92,1.316-2.879c3.342-7.129,7.649-13.736,11.344-20.671l-0.021,0.058
					c3.626-6.601,5.728-7.57,9.379-5.268c3.32,2.093,8.203,6.328,9.062,7.08c1.75,1.686,3.43,3.445,5.016,5.292
					c-3.485-5.766-8.438-10.48-13.483-14.87c-1.249-1.116-1.313-2.693-0.389-3.788c1.957,0.746,3.758,1.904,5.432,3.158
					c5.31,3.765,9.865,8.701,13.285,14.219c-0.421-2.269-1.821-7.338-6.292-11.873c-0.706-0.731-1.396-1.476-2.059-2.243
					c7.127,2.71,12.374,5.889,15.4,7.979c2.864,2.082,5.66,4.272,8.206,6.729c8.45,6.93,17.79,13.79,28.9,15.36
					c6.78,0.78,14.07,1.05,20.34-2.08c5.49-2.8,8.58-8.59,10.27-14.28C332.931,231.238,333.396,231.638,333.781,232.109z
					 M330.434,227.963c0.402,2.033,0.452,4.269-3.716,7.483c-4.146,3.197-18.126,3.561-24.552,1.842
					c-5.263-1.82-9.832-5.164-14.301-9.396c-2.536-2.796-4.859-5.795-6.984-8.919c9.781,1.347,18.993,2.14,27.271,1.489
					c6.754,4.176,9.104,7.301,9.104,7.301s-0.759-3.02-5.122-7.732c3.108-0.449,6.064-1.14,8.845-2.131
					C326.582,220.466,330.039,225.964,330.434,227.963z M322.801,171.993c-1.251-0.033-2.794-0.311-3.865-0.986
					c-0.629-0.397-1.137-1.064-1.138-1.808c-0.003-1.403,1.679-2.891,2.963-3.166c3.31-0.71,6.74-0.89,10.02,0.14
					c3.15,1.42,7.54,3.81,6.99,7.861c-0.131,0.946-2.78,2.076-3.548,2.446c-1.576,0.758-3.462,1.01-5.172,0.6
					c-1.316-0.315-2.965-1.203-2.089-2.777c3.08-1.17,6.56-2.04,9.75-0.77C333.331,169.273,327.351,172.113,322.801,171.993z
					 M353.727,188.361c-0.227-0.081-0.469-0.133-0.724-0.133c-1.197,0-2.167,0.97-2.167,2.167s0.97,2.167,2.167,2.167
					c0.036,0,0.069-0.009,0.105-0.011c-0.769,3.539-2.126,6.943-4.055,9.971c-0.048,0.073-0.093,0.139-0.14,0.211
					c-0.158,0.243-0.323,0.482-0.487,0.721c-0.397-0.453-0.973-0.745-1.623-0.745c-1.197,0-2.167,0.97-2.167,2.167
					c0,0.793,0.43,1.479,1.066,1.857c-0.346,0.359-0.679,0.732-1.046,1.072c-1.319,1.097-2.8,1.942-4.799,2.893
					c-3.908,1.859-9.295,1.689-14.215,0.394c0.962-5.492,1.281-11.063,1.604-16.623c-0.001,0.014,1.064-0.608,1.532-0.885
					c2.648,1.842,5.341,1.484,5.341,1.484c-1.6-0.381-2.916-1.161-4.018-2.214c0.367-0.188,0.734-0.377,1.084-0.596
					c1.415-0.885,2.726-1.935,3.906-3.116c0.117-0.117,0.23-0.243,0.346-0.364c3.51,2.504,7.031,1.341,7.031,1.341
					c-2.331-0.111-4.256-1.105-5.879-2.634c3.503-4.256,5.974-10.201,5.062-15.581c-1.24-3.47-4.12-6.08-7.44-7.54
					c-4.298-2.054-9.143-2.523-13.84-2.055c-4.386,0.437-9.462,1.327-13.147,3.888c-3.439,2.39-5.639,6.55-5.133,10.777
					c0.245,3.907,3.416,7.277,6.667,9.929c-1.359,2.115-3.191,3.685-5.711,4.285c0,0,4.092,0.555,7.147-3.157
					c0.718,0.544,1.421,1.055,2.073,1.522c1.457,1.043,2.983,1.988,4.555,2.849c-0.991,2.901-2.682,5.244-5.525,6.387
					c0,0,4.989-0.076,7.28-5.548c1.427,0.622,3.444,1.484,3.444,1.494c-0.05,3.72-1.02,7.4-3.13,10.5
					c-3.46,4.97-9.28,7.79-15.14,8.79c-12.22,2.5-24.97-1.89-34.6-9.43c-2.65-1.98-4.66-4.83-7.79-6.13
					c1.22,4.23,4.01,7.72,6.29,11.41c2.528,3.616,5.14,7.187,7.919,10.615c0,0,5.124,7.824,13.539,13.797
					c0.019,0.013,0.039,0.026,0.058,0.039c1.765,1.248,3.677,2.41,5.713,3.406c3.26,1.66,6.691,2.97,10.102,3.852
					c0.574,0.114,1.209,0.26,1.922,0.447c0.054,0.012,0.108,0.023,0.163,0.034c2.122,0.442,4.219,0.715,6.243,0.798
					c6.878,0.028,12.149-2.566,12.149-2.566s-1.69,2.868-5.159,3.773s-8.744,2.131-19.459-0.018
					c-1.953-0.371-4.03-0.885-6.246-1.631c-10.622-3.574-17.522-13.533-30.645-22.048c-3.184-1.857-6.494-3.494-9.978-4.787
					c-11.68-4.12-23.5-10.79-29.73-21.91c-2.21-2.81-3.45-6.18-4.42-9.57c-2.752-11.199,0.843-23.141,0.594-44.598
					c-0.171-3.207-0.245-6.42-0.174-9.642c0.17-9.83-1.37-20.51,3.87-29.4l0.16-0.01c0.75-0.89,1.57-1.7,2.46-2.43
					c19.96-13.47,45.07-19.49,68.89-15.36c6.858,1.157,13.346,4.133,18.871,8.331c2.89,2.196,5.591,4.655,7.943,7.424
					c2.324,2.735,4.093,5.963,5.566,9.222c0.77,1.703,1.455,3.443,2.075,5.205c0.596,1.697,1.119,3.419,1.576,5.158
					c-2.9-3.11-5.65-6.35-9.1-8.86c0.041-3.956-3.507-6.238-6.873-7.31c-2.171-0.691-4.626-1.085-6.657-0.053
					c-0.17,0.086-0.398,0.175-0.53,0.037c-0.075-0.078-0.081-0.199-0.081-0.307c-0.002-0.312-0.004-0.624-0.006-0.936
					c0,0.057-1.725,0.713-1.897,0.801c-0.691,0.352-1.352,0.767-1.937,1.278c-1.298,1.132-2.887,3.615-1.45,5.232
					c0.476,0.535,1.208,0.759,1.915,0.875c2.124,0.346,4.191,0.876,6.215,1.624c0.109,0.04,0.228,0.091,0.276,0.196
					c0.054,0.121-0.008,0.261-0.078,0.373c-0.379,0.606-1.01,0.989-1.522,1.468c-0.573,0.536-1.122,1.11-1.641,1.699
					c-0.799,0.906-1.525,1.899-2.001,3.016c-0.201,0.472-0.97,2.509,0.148,2.441c0.606-0.037,1.25-1.013,1.611-1.428
					c0.658-0.756,1.266-1.554,1.904-2.326c1.283-1.552,2.737-3.035,4.697-3.679c5.18-1.12,10.07,1.87,13.48,5.51
					c5.24,5,7.17,12.33,8.19,19.27c0.92,6.54,0,13.11-0.96,19.58c-8.63-3.48-19.45-3.73-25.68-11.5
					c-4.628-7.283-6.421-15.84-8.149-24.172c-0.653-3.148-1.393-6.277-2.054-9.423c-0.647-3.082-1.462-6.251-1.348-9.423
					c0.031-0.875,0.148-1.749,0.1-2.623c-1.06,1.068-1.573,2.587-1.676,4.087c-0.139,2.017,0.59,4.135,0.999,6.105
					c1.847,8.891,2.996,18.063,5.702,26.747c0.855,2.744,1.9,5.433,3.215,7.991c2.38,4.84,7.01,8.29,12.2,9.62
					c10.7,3.09,22.29,6.3,29.91,15C352.661,174.47,354.292,181.496,353.727,188.361z M365.099,138.428
					c-3.141,11.831-7.407,21.381-7.407,21.381c-1.188-9.507-6.051-20.368-13.262-35.598c-0.196-0.391-0.396-0.781-0.579-1.179
					c-0.367-0.784-0.731-1.569-1.096-2.354c-0.028-0.06-0.055-0.116-0.083-0.178c-3.367-7.238-6.899-14.406-10.221-21.66
					c-0.633-1.382-1.266-2.764-1.963-4.115c-2.602-5.045-6.456-9.215-10.697-12.943c-5.52-4.65-13.04-6.4-20.09-5.16
					c5.94-3.39,13.75-4.03,19.78-0.49c7.21,4.16,12.48,10.8,18.86,16.03c6.848,6.046,14.501,11.372,20.505,18.317
					C366.56,118.081,368.24,126.598,365.099,138.428z"/>
				<path style="fill:#3E2E2E;" d="M244.463,119.194c3.672-0.511,7.216-1.652,10.862-2.297c0.474-0.084,0.943-0.149,1.407-0.197
					c3.193-0.334,6.194,0.091,9.461,0.271c0.778,0.043,1.579,0.048,2.307-0.23c2.424-0.927,1.159-3.394-0.023-4.81
					c-1.058-1.269-2.453-2.055-3.977-2.627c-6.413-2.411-13.22-0.248-18.277,4.036c-1.087,0.921-2.211,2.096-2.73,3.451
					C243.154,117.675,243.043,119.392,244.463,119.194z"/>
				<path style="fill:#3E2E2E;" d="M273.608,122.243c-1.004-0.796-2.025-1.565-3.13-2.217c-1.107-0.653-2.849-1.428-4.142-0.869
					c0.215,0.239,0.655,0.396,0.939,0.568c0.334,0.202,0.664,0.413,0.987,0.631c1.314,0.888,2.511,1.934,3.758,2.91
					c1.146,0.898,2.356,1.695,3.428,2.688c0.014,0.013,0.031,0.03,0.05,0.05c0.119,0.127,0.247,0.359,0.421,0.416
					c0.263,0.086,0.351-0.077,0.261-0.324C275.649,124.64,274.839,123.219,273.608,122.243z"/>
				<path style="fill:#3E2E2E;" d="M252.272,121.813c0.875-0.456,2.498-1.629,3.489-1.64c-4.007,0.045-7.582,2.026-10.907,4.065
					c-7.394,4.534-12.662,12.305-13.154,21.096c-0.02,0.351-0.108,1.294,0.456,0.86c0.234-0.18,0.338-1.491,0.425-1.812
					c0.336-1.245,0.758-2.465,1.258-3.653c0.997-2.371,2.3-4.608,3.826-6.677c3.036-4.117,6.934-7.579,11.25-10.307
					C250.005,123.054,251.126,122.41,252.272,121.813z"/>
				<path style="fill:#3E2E2E;" d="M327.001,149.163c7.12-4.94,7.59-16.34,2.31-22.77c-3.22-3.08-7.3-6.52-12.08-5.79
					c-2.87,0.45-4.87,2.9-6.21,5.3c-3.41,6.41-1.43,14.42,2.85,19.91C316.831,149.603,322.621,152.233,327.001,149.163z
					 M320.151,126.133c5.64-4.1,11.66,5.8,6.51,9.7C321.211,138.573,314.911,130.023,320.151,126.133z"/>
				<path style="fill:#3E2E2E;" d="M254.281,131.493c-8.45,3.87-12.15,15.2-8.76,23.61c3.53,8.22,14.63,11.44,22.1,6.61
					c5.61-4.27,9.22-11.96,6.88-18.94C272.241,134.503,262.831,127.223,254.281,131.493z M267.471,146.723
					c-3.71,1.62-8.25-0.79-8.91-4.76c-0.6-2.69,0.82-5.76,3.54-6.62C268.241,133.043,273.031,143.433,267.471,146.723z"/>
				<path style="fill:#3E2E2E;" d="M263.825,187.706c-1.332-0.515-2.728-0.706-4.149-0.635c-2.456,0.121-4.78,1.418-6.262,3.372
					c-2,2.636-2.805,7.889-0.337,10.531c0.217,0.233,0.404,0.476,0.615,0.471c0.079-0.002,0.161-0.038,0.249-0.121
					c0.443-0.417,0.187-1.332,0.171-1.846c-0.023-0.718,0.031-1.438,0.159-2.144c0.248-1.378,0.774-2.707,1.552-3.872
					c1.707-2.554,4.555-4.25,7.624-4.443c0.346-0.022,1.718,0.038,1.853-0.414C265.41,188.233,264.137,187.826,263.825,187.706z"/>
				<path style="fill:#3E2E2E;" d="M293.768,194.25c-1.197,0-2.167,0.97-2.167,2.167c0,1.197,0.97,2.167,2.167,2.167
					s2.167-0.97,2.167-2.167C295.935,195.22,294.965,194.25,293.768,194.25z"/>
				<circle style="fill:#3E2E2E;" cx="282.986" cy="190.395" r="2.167"/>
				<path style="fill:#3E2E2E;" d="M285.153,203.704c-1.197,0-2.167,0.97-2.167,2.167s0.97,2.167,2.167,2.167
					c1.197,0,2.167-0.97,2.167-2.167S286.35,203.704,285.153,203.704z"/>
				<circle style="fill:#3E2E2E;" cx="301.243" cy="205.871" r="2.167"/>
				<path style="fill:#3E2E2E;" d="M335.327,201.538c-1.197,0-2.167,0.97-2.167,2.167c0,1.197,0.97,2.167,2.167,2.167
					s2.167-0.97,2.167-2.167C337.493,202.508,336.523,201.538,335.327,201.538z"/>
				<path style="fill:#3E2E2E;" d="M344.634,192.083c-1.197,0-2.167,0.97-2.167,2.167c0,1.197,0.97,2.167,2.167,2.167
					s2.167-0.97,2.167-2.167C346.801,193.054,345.831,192.083,344.634,192.083z"/>
			</g>
		</g>
		<g id="Text">
			
				<text transform="matrix(1 0 0 1 150.9412 411.7285)" style="fill:#3E2E2E; font-family:'Lobster-Regular'; font-size:38.4176px;">Brand Name</text>
			
				<text transform="matrix(1 0 0 1 191.8186 427.9141)" style="fill:#3E2E2E; font-family:'Lusitana'; font-size:12px; letter-spacing:4;">placeholder</text>
		</g>
	</g>
</g>
</svg>
